<svg xmlns="http://www.w3.org/2000/svg" viewBox="0 0 128 128" fill="none">
  <rect width="128" height="128" rx="26" fill="url(#p)"/>
  <defs>
    <linearGradient id="p" x1="0" y1="0" x2="128" y2="128">
      <stop stop-color="#534BB1"/>
      <stop offset="1" stop-color="#551BF9"/>
    </linearGradient>
  </defs>
  <path d="M110.6 64.2c-.5-6-4.4-9.3-9.3-9.3h-3.7c1.7-5.1 2.6-10.7 2.6-16.5C100.2 23.3 86 9 70.7 9c-8 0-15.2 3.4-20.2 8.9C46 12.6 39.2 9 31.7 9 19.2 9 9 19.2 9 31.7v1c0 .2 0 .5.1.7-.1.7-.1 1.3-.1 2v44.1c0 5.2 4.2 9.4 9.4 9.4s9.4-4.2 9.4-9.4V69c0-3.6 2.9-6.5 6.5-6.5s6.5 2.9 6.5 6.5v5.5c0 5.2 4.2 9.4 9.4 9.4s9.4-4.2 9.4-9.4v-7.3c0-3.6 2.9-6.5 6.5-6.5s6.5 2.9 6.5 6.5v7.3c0 5.2 4.2 9.4 9.4 9.4s9.4-4.2 9.4-9.4v-5.5c0-3.6 2.9-6.5 6.5-6.5s6.5 2.9 6.5 6.5v9.3c0 5.2 4.2 9.4 9.4 9.4 4.5 0 8.2-3.1 9.2-7.3.1-.7.2-1.4.2-2.1V64.2z" fill="#fff"/>
  <circle cx="42.5" cy="44.5" r="6.2" fill="#534BB1"/>
  <circle cx="69" cy="44.5" r="6.2" fill="#534BB1"/>
</svg>
